<svg width="1167" height="603" viewBox="0 0 1167 603" fill="none" xmlns="http://www.w3.org/2000/svg">
<path fill-rule="evenodd" clip-rule="evenodd" d="M292.739 602.362C131.064 602.362 0 467.518 0 301.181C0 134.843 131.064 0 292.739 0C385.924 0 468.94 44.7951 522.552 114.597C523.079 115.283 523.726 115.872 524.468 116.316C558.397 136.6 601.282 137.59 636.086 119.287C641.289 116.551 645.577 112.426 649.298 107.875C703.889 41.1047 786.929 0.190959 873.632 0.190959C1035.31 0.190959 1166.37 135.034 1166.37 301.372C1166.37 467.709 1035.31 602.553 873.632 602.553C784.411 602.553 704.513 561.488 650.819 496.727C649.47 495.1 647.896 493.662 646.089 492.565C606.443 468.506 555.217 469.693 516.735 496.14C515.358 497.087 514.134 498.238 513.056 499.514C465.812 555.39 404.508 602.362 292.739 602.362Z" fill="#9FF475" fill-opacity="0.3"/>
</svg>
